<svg width="24" height="18" viewBox="0 0 24 18" fill="none" xmlns="http://www.w3.org/2000/svg">
<path id="Vector" d="M13.492 0.82137L21.3148 4.72682C21.6763 4.90727 21.682 5.42037 21.3245 5.60872L11.1646 10.9628C10.8853 11.1099 10.575 11.1885 10.2593 11.1919C9.94363 11.1954 9.63168 11.1237 9.34922 10.9827L2.96976 7.79781C2.19274 7.48648 1.32413 8.05576 1.32413 8.91319C1.32413 9.60266 1.71427 10.233 2.33189 10.5413L8.72741 13.7342C9.11782 13.3373 9.66144 13.0911 10.2626 13.0911C10.8466 13.0911 11.3763 13.3234 11.764 13.7006L19.7298 9.50279C19.7076 9.37797 19.6965 9.25144 19.6966 9.12467C19.6966 7.93811 20.6599 6.97622 21.8483 6.97622C23.0366 6.97622 24 7.93811 24 9.12467C24 10.3112 23.0366 11.2731 21.8483 11.2731C21.2672 11.2731 20.74 11.0432 20.3528 10.6694L12.3826 14.8696C12.4038 14.9917 12.4144 15.1155 12.4143 15.2396C12.4143 16.4261 11.451 17.388 10.2626 17.388C9.07426 17.388 8.1109 16.4261 8.1109 15.2396C8.1109 15.1298 8.11913 15.022 8.13504 14.9167L1.64693 11.6776C0.637584 11.1737 0 10.1437 0 9.01691V8.38931C0 7.53119 0.47568 6.74354 1.23576 6.34305L11.6767 0.84129C11.956 0.694138 12.2663 0.615583 12.582 0.612119C12.8976 0.608655 13.2096 0.680382 13.492 0.82137ZM10.2626 16.0659C10.7197 16.0659 11.0902 15.6959 11.0902 15.2396C11.0902 14.7832 10.7197 14.4132 10.2626 14.4132C9.80556 14.4132 9.43505 14.7832 9.43505 15.2396C9.43505 15.6959 9.80556 16.0659 10.2626 16.0659ZM22.6759 9.12467C22.6759 9.58103 22.3054 9.95099 21.8483 9.95099C21.3912 9.95099 21.0207 9.58103 21.0207 9.12467C21.0207 8.66831 21.3912 8.29835 21.8483 8.29835C22.3054 8.29835 22.6759 8.66831 22.6759 9.12467Z" fill="white"/>
</svg>
