<svg width="25" height="25" viewBox="0 0 25 25" fill="none" xmlns="http://www.w3.org/2000/svg">
<g id="building-02">
<path id="Icon" d="M15.4475 21.5V16.1C15.4475 15.5399 15.4475 15.2599 15.3385 15.046C15.2426 14.8578 15.0897 14.7049 14.9015 14.609C14.6876 14.5 14.4076 14.5 13.8475 14.5H11.0475C10.4875 14.5 10.2074 14.5 9.99352 14.609C9.80536 14.7049 9.65238 14.8578 9.5565 15.046C9.44751 15.2599 9.44751 15.5399 9.44751 16.1V21.5M3.44751 7.5C3.44751 9.15685 4.79066 10.5 6.44751 10.5C8.10436 10.5 9.44751 9.15685 9.44751 7.5C9.44751 9.15685 10.7907 10.5 12.4475 10.5C14.1044 10.5 15.4475 9.15685 15.4475 7.5C15.4475 9.15685 16.7907 10.5 18.4475 10.5C20.1044 10.5 21.4475 9.15685 21.4475 7.5M6.64751 21.5H18.2475C19.3676 21.5 19.9277 21.5 20.3555 21.282C20.7318 21.0903 21.0378 20.7843 21.2295 20.408C21.4475 19.9802 21.4475 19.4201 21.4475 18.3V6.7C21.4475 5.5799 21.4475 5.01984 21.2295 4.59202C21.0378 4.21569 20.7318 3.90973 20.3555 3.71799C19.9277 3.5 19.3676 3.5 18.2475 3.5H6.64751C5.5274 3.5 4.96735 3.5 4.53953 3.71799C4.1632 3.90973 3.85724 4.21569 3.6655 4.59202C3.44751 5.01984 3.44751 5.57989 3.44751 6.7V18.3C3.44751 19.4201 3.44751 19.9802 3.6655 20.408C3.85724 20.7843 4.1632 21.0903 4.53953 21.282C4.96735 21.5 5.5274 21.5 6.64751 21.5Z" stroke="white" stroke-width="2" stroke-linecap="round" stroke-linejoin="round"/>
</g>
</svg>
