<svg width="25" height="25" viewBox="0 0 25 25" fill="none" xmlns="http://www.w3.org/2000/svg">
<g id="compass-03">
<g id="Icon">
<path d="M12.6316 22.5C18.1544 22.5 22.6316 18.0228 22.6316 12.5C22.6316 6.97715 18.1544 2.5 12.6316 2.5C7.10874 2.5 2.63159 6.97715 2.63159 12.5C2.63159 18.0228 7.10874 22.5 12.6316 22.5Z" stroke="white" stroke-width="2" stroke-linecap="round" stroke-linejoin="round"/>
<path d="M15.3537 8.76596C15.8422 8.60312 16.0865 8.52169 16.249 8.57962C16.3903 8.63003 16.5016 8.74127 16.552 8.88263C16.6099 9.04507 16.5285 9.28935 16.3656 9.77789L14.8781 14.2405C14.8317 14.3797 14.8085 14.4492 14.769 14.507C14.734 14.5582 14.6898 14.6024 14.6386 14.6374C14.5808 14.6769 14.5113 14.7001 14.3721 14.7465L9.90949 16.234C9.42094 16.3969 9.17666 16.4783 9.01422 16.4204C8.87286 16.37 8.76162 16.2587 8.71121 16.1174C8.65328 15.9549 8.73471 15.7107 8.89756 15.2221L10.3851 10.7595C10.4315 10.6203 10.4547 10.5508 10.4942 10.493C10.5292 10.4418 10.5734 10.3976 10.6246 10.3626C10.6824 10.3231 10.7519 10.2999 10.8911 10.2535L15.3537 8.76596Z" stroke="white" stroke-width="2" stroke-linecap="round" stroke-linejoin="round"/>
</g>
</g>
</svg>
