<svg width="25" height="25" viewBox="0 0 25 25" fill="none" xmlns="http://www.w3.org/2000/svg">
<g id="currency-dollar-circle">
<path id="Icon" d="M8.63159 15.1667C8.63159 16.4553 9.67626 17.5 10.9649 17.5H13.1316C14.5123 17.5 15.6316 16.3807 15.6316 15C15.6316 13.6193 14.5123 12.5 13.1316 12.5H11.1316C9.75088 12.5 8.63159 11.3807 8.63159 10C8.63159 8.61929 9.75088 7.5 11.1316 7.5H13.2983C14.5869 7.5 15.6316 8.54467 15.6316 9.83333M12.1316 6V7.5M12.1316 17.5V19M22.1316 12.5C22.1316 18.0228 17.6544 22.5 12.1316 22.5C6.60874 22.5 2.13159 18.0228 2.13159 12.5C2.13159 6.97715 6.60874 2.5 12.1316 2.5C17.6544 2.5 22.1316 6.97715 22.1316 12.5Z" stroke="white" stroke-width="2" stroke-linecap="round" stroke-linejoin="round"/>
</g>
</svg>
