<svg width="16" height="16" viewBox="0 0 16 16" fill="none" xmlns="http://www.w3.org/2000/svg">
<g id="DOT 1">
<path id="Vector" d="M8 16C12.4183 16 16 12.4183 16 8C16 3.58172 12.4183 0 8 0C3.58172 0 0 3.58172 0 8C0 12.4183 3.58172 16 8 16Z" fill="white"/>
<g id="Group">
<path id="Vector_2" d="M7.99991 5.01999C9.01991 5.01999 9.83991 4.53999 9.83991 3.93999C9.83991 3.33999 9.01991 2.85999 7.99991 2.85999C6.97991 2.85999 6.15991 3.33999 6.15991 3.93999C6.15991 4.53999 6.97991 5.01999 7.99991 5.01999Z" fill="#E6007A"/>
<path id="Vector_3" d="M7.99991 13.12C9.01991 13.12 9.83991 12.64 9.83991 12.04C9.83991 11.44 9.01991 10.96 7.99991 10.96C6.97991 10.96 6.15991 11.44 6.15991 12.04C6.15991 12.64 6.97991 13.12 7.99991 13.12Z" fill="#E6007A"/>
<path id="Vector_4" d="M5.42003 6.51998C5.94003 5.63998 5.92003 4.67998 5.42003 4.37998C4.90003 4.07998 4.08003 4.55998 3.56003 5.43998C3.04003 6.31998 3.06003 7.27998 3.56003 7.57998C4.08003 7.87998 4.92003 7.39998 5.42003 6.51998Z" fill="#E6007A"/>
<path id="Vector_5" d="M12.4398 10.56C12.9598 9.67999 12.9398 8.71999 12.4398 8.41999C11.9198 8.11999 11.0998 8.59999 10.5798 9.47999C10.0598 10.36 10.0798 11.32 10.5798 11.62C11.0998 11.92 11.9398 11.44 12.4398 10.56Z" fill="#E6007A"/>
<path id="Vector_6" d="M5.41992 11.62C5.93992 11.32 5.93992 10.36 5.41992 9.47999C4.89992 8.59999 4.07992 8.11999 3.55992 8.41999C3.03992 8.71999 3.03992 9.67999 3.55992 10.56C4.05992 11.44 4.89992 11.92 5.41992 11.62Z" fill="#E6007A"/>
<path id="Vector_7" d="M12.4399 7.57998C12.9599 7.27998 12.9599 6.31998 12.4399 5.43998C11.9199 4.55998 11.0999 4.07998 10.5799 4.37998C10.0599 4.67998 10.0599 5.63998 10.5799 6.51998C11.0799 7.39998 11.9199 7.87998 12.4399 7.57998Z" fill="#E6007A"/>
</g>
</g>
</svg>
