<svg width="18" height="18" viewBox="0 0 18 18" fill="none" xmlns="http://www.w3.org/2000/svg">
    <path d="M13.1667 1.78332C14.4236 2.50904 15.4691 3.55043 16.1998 4.80441C16.9306 6.05839 17.3211 7.48147 17.3329 8.93277C17.3446 10.3841 16.9771 11.8133 16.2667 13.0789C15.5563 14.3445 14.5277 15.4027 13.2827 16.1486C12.0377 16.8945 10.6195 17.3023 9.16842 17.3317C7.71736 17.3611 6.28379 17.011 5.00963 16.316C3.73547 15.6211 2.66489 14.6054 1.90389 13.3696C1.14289 12.1337 0.717842 10.7206 0.670835 9.26999L0.666668 8.99999L0.670835 8.72999C0.717504 7.29082 1.13629 5.88829 1.88637 4.65915C2.63644 3.43001 3.69221 2.4162 4.95074 1.71656C6.20928 1.01692 7.62762 0.655322 9.06751 0.667023C10.5074 0.678724 11.9197 1.06332 13.1667 1.78332ZM7.75917 6.61666C7.58457 6.51272 7.37801 6.47616 7.17834 6.51385C6.97868 6.55154 6.79966 6.66088 6.67496 6.82131C6.55026 6.98174 6.48847 7.1822 6.50122 7.38499C6.51396 7.58779 6.60036 7.77894 6.74417 7.92249L7.82084 8.99999L6.74417 10.0775L6.675 10.1558C6.54549 10.3233 6.48459 10.5338 6.50467 10.7446C6.52475 10.9554 6.6243 11.1506 6.7831 11.2906C6.94191 11.4306 7.14806 11.505 7.35968 11.4985C7.57131 11.4921 7.77254 11.4053 7.9225 11.2558L9 10.1792L10.0775 11.2558L10.1558 11.325C10.3233 11.4545 10.5338 11.5154 10.7446 11.4953C10.9554 11.4752 11.1506 11.3757 11.2906 11.2169C11.4307 11.0581 11.505 10.8519 11.4985 10.6403C11.4921 10.4287 11.4053 10.2275 11.2558 10.0775L10.1792 8.99999L11.2558 7.92249L11.325 7.84416C11.4545 7.67666 11.5154 7.46616 11.4953 7.25539C11.4753 7.04462 11.3757 6.84939 11.2169 6.70937C11.0581 6.56934 10.8519 6.49501 10.6403 6.50147C10.4287 6.50793 10.2275 6.5947 10.0775 6.74416L9 7.82082L7.9225 6.74416L7.84417 6.67499L7.75917 6.61666Z" fill="#BC1919"/>
</svg>
