<?xml version="1.0" standalone="no"?><!DOCTYPE svg PUBLIC "-//W3C//DTD SVG 1.1//EN" "http://www.w3.org/Graphics/SVG/1.1/DTD/svg11.dtd"><svg class="icon" width="128px" height="128.00px" viewBox="0 0 1024 1024" version="1.1" xmlns="http://www.w3.org/2000/svg"><path d="M209.92 312.32V230.4a225.28 225.28 0 1 1 450.56 0v81.92h30.72A148.48 148.48 0 0 1 839.68 460.8v51.2a46.08 46.08 0 1 1-92.16 0V460.8A56.32 56.32 0 0 0 691.2 404.48H179.2A56.32 56.32 0 0 0 122.88 460.8v358.4A56.32 56.32 0 0 0 179.2 875.52h281.6a46.08 46.08 0 1 1 0 92.16H179.2A148.48 148.48 0 0 1 30.72 819.2V460.8A148.48 148.48 0 0 1 179.2 312.32h30.72z m92.16-81.92v81.92h266.24V230.4a133.12 133.12 0 0 0-266.24 0zM793.6 865.28a46.08 46.08 0 1 0 0-92.16 46.08 46.08 0 0 0 0 92.16z" fill="#ffffff" /><path d="M593.92 819.2a199.68 199.68 0 1 1 399.36 0 199.68 199.68 0 0 1-399.36 0z m199.68-107.52a107.52 107.52 0 1 0 0 215.04 107.52 107.52 0 0 0 0-215.04z" fill="#ffffff" /></svg>