<svg width="24" height="24" viewBox="0 0 24 24" fill="none" xmlns="http://www.w3.org/2000/svg">
<g id="star-06">
<path id="Icon" d="M4.50073 22V17M4.50073 7V2M2.00073 4.5H7.00073M2.00073 19.5H7.00073M13.0007 3L11.2666 7.50886C10.9845 8.24209 10.8435 8.60871 10.6243 8.91709C10.4299 9.1904 10.1911 9.42919 9.91782 9.62353C9.60944 9.84281 9.24282 9.98381 8.50959 10.2658L4.00073 12L8.5096 13.7342C9.24282 14.0162 9.60944 14.1572 9.91782 14.3765C10.1911 14.5708 10.4299 14.8096 10.6243 15.0829C10.8435 15.3913 10.9845 15.7579 11.2666 16.4911L13.0007 21L14.7349 16.4911C15.0169 15.7579 15.1579 15.3913 15.3772 15.0829C15.5715 14.8096 15.8103 14.5708 16.0836 14.3765C16.392 14.1572 16.7586 14.0162 17.4919 13.7342L22.0007 12L17.4919 10.2658C16.7586 9.98381 16.392 9.8428 16.0836 9.62353C15.8103 9.42919 15.5715 9.1904 15.3772 8.91709C15.1579 8.60871 15.0169 8.24209 14.7349 7.50886L13.0007 3Z" stroke="white" stroke-width="2" stroke-linecap="round" stroke-linejoin="round"/>
</g>
</svg>
