<?xml version="1.0" encoding="utf-8"?>
<!-- Generator: Adobe Illustrator 26.2.1, SVG Export Plug-In . SVG Version: 6.00 Build 0)  -->
<svg version="1.1" id="Layer_1" xmlns="http://www.w3.org/2000/svg" xmlns:xlink="http://www.w3.org/1999/xlink" x="0px" y="0px"
	 viewBox="0 0 56 56" style="enable-background:new 0 0 56 56;" xml:space="preserve">
<style type="text/css">
	.st0{fill:#301748;}
	.st1{fill:url(#SVGID_1_);}
	.st2{fill:url(#SVGID_00000132777470446453409680000003748991928875112599_);}
	.st3{fill:url(#SVGID_00000173878954023588929360000017940526338395374240_);}
	.st4{fill:url(#SVGID_00000117649190993278910110000017531753764068218761_);}
	.st5{fill:url(#SVGID_00000077313065154297419250000007800989974177146771_);}
</style>
<circle class="st0" cx="27.9" cy="28.1" r="28"/>
<linearGradient id="SVGID_1_" gradientUnits="userSpaceOnUse" x1="9569.7197" y1="28.2617" x2="9613.2383" y2="28.2617" gradientTransform="matrix(-1 0 0 -1 9622.75 58)">
	<stop  offset="0" style="stop-color:#E2107B"/>
	<stop  offset="1" style="stop-color:#301748"/>
</linearGradient>
<path class="st1" d="M28.9,46.7c-0.9-0.9-1.8-1.8-2.7-2.8c-2-2.5-6.3-6.9-7.4-8c-1.2-1.3-2.5-2.5-3.7-3.8c-0.2-0.2-0.5-0.4-0.3-0.7
	c0.2-0.3,0.5-0.3,0.8-0.2c0.1,0,0.3,0,0.4,0.1c0.9,0.3,1.8,0.7,2.7,1.1c1.8,0.7,3.5,1.5,5.3,2.1c1.1,0.4,1.5,0,1.3-1.1
	c-0.2-0.9-0.4-1.8-0.7-2.8c-0.2-0.8,0.2-1.6,1-1.8c0.1,0,0.1,0,0.2,0c0.4-0.1,0.7-0.1,1.1-0.1c0.4,0,0.7-0.1,0.9-0.5
	c0.1-0.4,0-0.8-0.3-1.1c-1.2-1.2-2.4-2.3-3.6-3.5c-3-2.9-6-5.9-8.9-8.8c-1.8-1.7-3.5-3.5-5.3-5.2C9.6,9.2,9.4,9.1,9.6,8.8
	c0.1-0.3,0.4-0.2,0.6-0.2c0.7,0.1,1.3,0.7,1.8,1.1c1.5,1.1,3.2,2,4.7,3c1.1,0.7,2.2,1.4,3.3,2.1c1.1,0.7,2.1,1.4,3.2,2.1
	c1.5,1,3.1,1.9,4.6,2.9c1.7,1.1,3.3,2.1,4.9,3.2c0.3,0.2,0.6,0.3,0.9,0c0.3-0.3,0.3-0.6,0.1-0.9c-0.3-0.9-0.9-1.6-1.2-2.5
	c-0.1-0.3-0.1-0.6,0.1-0.8c0.2-0.2,0.6-0.2,0.8,0c1.1,0.5,2.2,1.1,3.3,1.8c1.3,0.8,2.6,1.5,4,2.1c2.2,1.1,4.4,2.3,6.5,3.6
	c1.2,0.7,2.2,1.7,3,2.9c0.6,0.8,1.1,1.8,1.5,2.7c0.6,1.4,1,2.9,1.1,4.4c0.3,2.7-0.6,6.1-1.9,8c-1.1,1.7-2.5,3.1-4.1,4.3
	c-1.1,0.7-2.3,1.4-3.5,1.8c-1.3,0.5-2.7,0.6-4.1,0.6c-0.1,0-0.2,0-0.4,0C36,50.7,33.1,50.3,28.9,46.7z M48.2,37.8
	c0.1-4.8-3.7-8.8-8.6-8.9c-0.1,0-0.2,0-0.3,0c-4.7,0-8.6,3.9-8.6,9c0,4.2,4.1,8.8,8.7,8.5C44.2,46.6,48.2,42.2,48.2,37.8z"/>
<linearGradient id="SVGID_00000104688459640159683090000010464250513277764992_" gradientUnits="userSpaceOnUse" x1="9601.6816" y1="31.6167" x2="9604.3203" y2="31.6167" gradientTransform="matrix(-1 0 0 -1 9622.75 58)">
	<stop  offset="0" style="stop-color:#E2107B"/>
	<stop  offset="1" style="stop-color:#301748"/>
	<stop  offset="1" style="stop-color:#0D1126"/>
</linearGradient>
<path style="fill:url(#SVGID_00000104688459640159683090000010464250513277764992_);" d="M18.4,26.4c0,0.7,0.6,1.4,1.3,1.4
	c0.7,0,1.3-0.6,1.3-1.3c0,0,0-0.1,0-0.1c0-0.7-0.6-1.3-1.4-1.4C19,25.1,18.4,25.7,18.4,26.4z"/>
<linearGradient id="SVGID_00000134234223416915103020000016337356470916051084_" gradientUnits="userSpaceOnUse" x1="9597.4688" y1="49.7646" x2="9600.1729" y2="49.7646" gradientTransform="matrix(-1 0 0 -1 9622.75 58)">
	<stop  offset="0" style="stop-color:#E2107B"/>
	<stop  offset="1" style="stop-color:#301748"/>
	<stop  offset="1" style="stop-color:#0D1126"/>
</linearGradient>
<path style="fill:url(#SVGID_00000134234223416915103020000016337356470916051084_);" d="M24,9.5c0.8,0,1.3-0.5,1.3-1.3
	c0-0.7-0.6-1.2-1.3-1.3c-0.6,0-1.4,0.7-1.4,1.3C22.6,9,23.3,9.6,24,9.5z"/>
<linearGradient id="SVGID_00000142155062184760190180000015077553614960966811_" gradientUnits="userSpaceOnUse" x1="9613.1396" y1="36.6525" x2="9615.5801" y2="36.6525" gradientTransform="matrix(-1 0 0 -1 9622.75 58)">
	<stop  offset="0" style="stop-color:#E2107B"/>
	<stop  offset="1" style="stop-color:#301748"/>
	<stop  offset="1" style="stop-color:#0D1126"/>
</linearGradient>
<path style="fill:url(#SVGID_00000142155062184760190180000015077553614960966811_);" d="M9.6,21.3c0-0.6-0.5-1.2-1.1-1.2
	c0,0-0.1,0-0.1,0c-0.7,0.1-1.2,0.6-1.2,1.3c0,0.6,0.6,1.2,1.2,1.2C9,22.6,9.6,22.1,9.6,21.3C9.6,21.4,9.6,21.4,9.6,21.3z"/>
<linearGradient id="SVGID_00000051384080115122101510000016496607053376095649_" gradientUnits="userSpaceOnUse" x1="9569.7988" y1="15.2043" x2="9591.5371" y2="23.5843" gradientTransform="matrix(-1 0 0 -1 9622.75 58)">
	<stop  offset="0" style="stop-color:#0D1126"/>
	<stop  offset="0" style="stop-color:#301748"/>
	<stop  offset="1" style="stop-color:#E2107B"/>
</linearGradient>
<path style="fill:url(#SVGID_00000051384080115122101510000016496607053376095649_);" d="M39.5,46.3c4.8,0.2,8.8-4.1,8.8-8.6
	c0.1-4.8-3.7-8.8-8.6-8.9c-0.1,0-0.2,0-0.3,0c-4.7,0-8.6,3.9-8.6,9C30.8,42,34.8,46.6,39.5,46.3z"/>
</svg>
