<?xml version="1.0" standalone="no"?><!DOCTYPE svg PUBLIC "-//W3C//DTD SVG 1.1//EN" "http://www.w3.org/Graphics/SVG/1.1/DTD/svg11.dtd"><svg class="icon" width="128px" height="128.00px" viewBox="0 0 1024 1024" version="1.1" xmlns="http://www.w3.org/2000/svg"><path d="M682.666667 85.333333c140.8 0 256 115.2 256 256v341.333334c0 140.8-115.2 256-256 256H341.333333c-140.8 0-256-115.2-256-256V341.333333c0-140.8 115.2-256 256-256h341.333334z m0 85.333334H341.333333C247.466667 170.666667 170.666667 247.466667 170.666667 341.333333v341.333334c0 93.866667 76.8 170.666667 170.666666 170.666666h341.333334c93.866667 0 170.666667-76.8 170.666666-170.666666V341.333333c0-93.866667-76.8-170.666667-170.666666-170.666666z m-384 384c21.333333 0 38.4 17.066667 42.666666 38.4v4.266666c0 25.6 17.066667 42.666667 42.666667 42.666667h196.266667l-12.8-12.8c-17.066667-17.066667-17.066667-38.4-4.266667-55.466667l4.266667-4.266666c17.066667-17.066667 42.666667-17.066667 59.733333 0l85.333333 85.333333c17.066667 17.066667 17.066667 42.666667 0 59.733333l-85.333333 85.333334c-17.066667 17.066667-42.666667 17.066667-59.733333 0-17.066667-17.066667-17.066667-42.666667 0-59.733334l12.8-12.8H384c-72.533333 0-128-55.466667-128-128 0-25.6 17.066667-42.666667 42.666667-42.666666z m157.866666-328.533334c17.066667 17.066667 17.066667 42.666667 0 59.733334l-12.8 12.8H640c72.533333 0 128 55.466667 128 128 0 25.6-17.066667 42.666667-42.666667 42.666666-21.333333 0-38.4-17.066667-42.666666-38.4V426.666667c0-25.6-17.066667-42.666667-42.666667-42.666667h-196.266667l12.8 12.8c17.066667 17.066667 17.066667 38.4 4.266667 55.466667l-4.266667 4.266666c-17.066667 17.066667-42.666667 17.066667-59.733333 0l-85.333333-85.333333c-17.066667-17.066667-17.066667-42.666667 0-59.733333l85.333333-85.333334c17.066667-17.066667 42.666667-17.066667 59.733333 0z" fill="#ffffff" /></svg>