<svg width="18" height="18" viewBox="0 0 18 18" fill="none" xmlns="http://www.w3.org/2000/svg">
    <path d="M13.1667 1.78332C14.4236 2.50904 15.4691 3.55043 16.1998 4.80441C16.9306 6.05839 17.3211 7.48147 17.3329 8.93277C17.3446 10.3841 16.9771 11.8133 16.2667 13.0789C15.5563 14.3445 14.5277 15.4027 13.2827 16.1486C12.0377 16.8945 10.6195 17.3023 9.16842 17.3317C7.71736 17.3611 6.28379 17.011 5.00963 16.316C3.73547 15.6211 2.66489 14.6054 1.90389 13.3696C1.14289 12.1337 0.717842 10.7206 0.670835 9.26999L0.666668 8.99999L0.670835 8.72999C0.717504 7.29082 1.13629 5.88829 1.88637 4.65915C2.63644 3.43001 3.69221 2.4162 4.95074 1.71656C6.20928 1.01692 7.62762 0.655322 9.06751 0.667023C10.5074 0.678724 11.9197 1.06332 13.1667 1.78332ZM12.0892 6.74416C11.9457 6.60068 11.7548 6.51449 11.5522 6.50175C11.3497 6.48902 11.1495 6.55062 10.9892 6.67499L10.9108 6.74416L8.16667 9.48749L7.08917 8.41082L7.01083 8.34166C6.85049 8.21737 6.65031 8.15585 6.44784 8.16862C6.24537 8.18139 6.05451 8.26759 5.91105 8.41104C5.7676 8.5545 5.6814 8.74536 5.66863 8.94783C5.65586 9.1503 5.71738 9.35048 5.84167 9.51082L5.91084 9.58916L7.5775 11.2558L7.65584 11.325C7.80198 11.4384 7.9817 11.4999 8.16667 11.4999C8.35164 11.4999 8.53136 11.4384 8.6775 11.325L8.75583 11.2558L12.0892 7.92249L12.1583 7.84416C12.2827 7.68382 12.3443 7.48361 12.3316 7.28109C12.3188 7.07857 12.2326 6.88765 12.0892 6.74416Z" fill="#299502"/>
</svg>
