<svg width="25" height="24" viewBox="0 0 25 24" fill="none" xmlns="http://www.w3.org/2000/svg">
<g id="wallet-04">
<path id="Icon" d="M20.6316 9.5V7.2C20.6316 6.0799 20.6316 5.51984 20.4136 5.09202C20.2219 4.7157 19.9159 4.40974 19.5396 4.21799C19.1118 4 18.5517 4 17.4316 4H5.83159C4.71149 4 4.15143 4 3.72361 4.21799C3.34729 4.40973 3.04133 4.71569 2.84958 5.09202C2.63159 5.51984 2.63159 6.0799 2.63159 7.2V16.8C2.63159 17.9201 2.63159 18.4802 2.84958 18.908C3.04133 19.2843 3.34729 19.5903 3.72361 19.782C4.15143 20 4.71149 20 5.83159 20L17.4316 20C18.5517 20 19.1117 20 19.5396 19.782C19.9159 19.5903 20.2219 19.2843 20.4136 18.908C20.6316 18.4802 20.6316 17.9201 20.6316 16.8V14.5M15.6316 12C15.6316 11.5353 15.6316 11.303 15.67 11.1098C15.8278 10.3164 16.448 9.69624 17.2414 9.53843C17.4346 9.5 17.6669 9.5 18.1316 9.5H20.1316C20.5962 9.5 20.8286 9.5 21.0218 9.53843C21.8152 9.69624 22.4353 10.3164 22.5932 11.1098C22.6316 11.303 22.6316 11.5353 22.6316 12C22.6316 12.4647 22.6316 12.697 22.5932 12.8902C22.4353 13.6836 21.8152 14.3038 21.0218 14.4616C20.8286 14.5 20.5962 14.5 20.1316 14.5H18.1316C17.6669 14.5 17.4346 14.5 17.2414 14.4616C16.448 14.3038 15.8278 13.6836 15.67 12.8902C15.6316 12.697 15.6316 12.4647 15.6316 12Z" stroke="white" stroke-width="2" stroke-linecap="round" stroke-linejoin="round"/>
</g>
</svg>
