<svg width="41" height="40" viewBox="0 0 41 40" fill="none" xmlns="http://www.w3.org/2000/svg">
<path d="M20.0196 40C31.0762 40 40.0392 31.0457 40.0392 20C40.0392 8.9543 31.0762 0 20.0196 0C8.96309 0 0 8.9543 0 20C0 31.0457 8.96309 40 20.0196 40Z" fill="#DE0376"/>
<path d="M29.9293 29.65C29.9293 29.65 29.0285 29.7 28.528 29.5C27.2767 29 26.7262 27.95 26.7262 26.1V20.25V6.49999C26.7262 5.89999 26.2758 5.49999 25.3749 5.29999H25.0746C24.524 5.29999 24.1737 5.69999 23.9234 6.54999V7.89999V15.25C21.6712 13.25 19.2689 12.2 16.6663 12.2C14.6644 12.2 12.7625 12.8 10.9107 14.05C8.00785 16.3 6.55643 19.05 6.55643 22.3C6.55643 24.45 7.25711 26.55 8.70854 28.6C11.0608 31.15 13.6133 32.45 16.316 32.45H16.9166C19.6693 32.45 22.1217 31.3 24.3238 28.95C25.4249 31.3 27.0765 32.45 29.2787 32.45H29.629C30.3798 32.45 30.9804 32.05 30.9804 31.1V31C30.9804 30.15 30.58 29.65 29.9293 29.65ZM16.9166 29.55H16.4661C15.7655 29.55 15.0147 29.45 14.1639 29.2C11.0108 27.75 9.45927 25.5 9.45927 22.5V22.15C9.45927 21.45 9.60942 20.65 9.90971 19.8C11.4112 16.7 13.6133 15.15 16.5662 15.15H16.8665C17.4171 15.15 18.1678 15.25 19.1688 15.5C22.3719 17 23.9735 19.2 23.9735 22.2V22.5V22.65C23.9735 23.15 23.8734 23.9 23.6232 24.85C22.0716 28 19.8194 29.55 16.9166 29.55Z" fill="white"/>
<path d="M33.0324 22.9C33.6329 22.9 34.1334 23.1 34.6339 23.55C35.0844 24 35.2846 24.55 35.2846 25.15C35.2846 26 34.8842 26.65 34.0834 27.15C33.733 27.3 33.3827 27.4 33.0824 27.4H32.9323C32.3317 27.4 31.7811 27.1 31.2306 26.55C30.9303 26.1 30.7301 25.65 30.7301 25.15C30.7301 24.4 31.0304 23.8 31.681 23.3C32.1815 23.05 32.5819 22.9 33.0324 22.9Z" fill="white"/>
</svg>
